0
SECTION
2
HEADER
9
$INSUNITS
70
4
9
$ACADVER
1
AC1014
9
$HANDSEED
5
FFFF
0
ENDSEC
0
SECTION
2
TABLES
0
TABLE
2
VPORT
5
8
100
AcDbSymbolTable
0
ENDTAB
0
TABLE
2
LTYPE
5
5
100
AcDbSymbolTable
0
LTYPE
5
14
100
AcDbSymbolTableRecord
100
AcDbLinetypeTableRecord
2
BYBLOCK
70
0
0
LTYPE
5
15
100
AcDbSymbolTableRecord
100
AcDbLinetypeTableRecord
2
BYLAYER
70
0
0
LTYPE
5
16
100
AcDbSymbolTableRecord
100
AcDbLinetypeTableRecord
2
DASHED
70
0
3
Dashed __ __ __ __ __ __ __ __ __ __ __ __ __ _
72
65
73
2
40
0.75
49
0.5
74
0
49
-0.25
74
0
0
ENDTAB
0
TABLE
2
LAYER
5
2
100
AcDbSymbolTable
70
3
0
LAYER
5
50
100
AcDbSymbolTableRecord
100
AcDbLayerTableRecord
2
1
70
0
62
7
6
DASHED
0
LAYER
5
51
100
AcDbSymbolTableRecord
100
AcDbLayerTableRecord
2
0
70
0
62
7
6
CONTINUOUS
0
ENDTAB
0
TABLE
2
STYLE
5
3
100
AcDbSymbolTable
70
1
0
STYLE
5
11
100
AcDbSymbolTableRecord
100
AcDbTextStyleTableRecord
2
STANDARD
70
0
0
ENDTAB
0
TABLE
2
VIEW
5
6
100
AcDbSymbolTable
70
0
0
ENDTAB
0
TABLE
2
UCS
5
7
100
AcDbSymbolTable
70
0
0
ENDTAB
0
TABLE
2
APPID
5
9
100
AcDbSymbolTable
70
2
0
APPID
5
12
100
AcDbSymbolTableRecord
100
AcDbRegAppTableRecord
2
ACAD
70
0
0
ENDTAB
0
TABLE
2
DIMSTYLE
5
A
100
AcDbSymbolTable
70
1
0
ENDTAB
0
TABLE
2
BLOCK_RECORD
5
1
100
AcDbSymbolTable
70
1
0
BLOCK_RECORD
5
1F
100
AcDbSymbolTableRecord
100
AcDbBlockTableRecord
2
*MODEL_SPACE
0
BLOCK_RECORD
5
1B
100
AcDbSymbolTableRecord
100
AcDbBlockTableRecord
2
*PAPER_SPACE
0
ENDTAB
0
ENDSEC
0
SECTION
2
BLOCKS
0
BLOCK
5
20
100
AcDbEntity
100
AcDbBlockBegin
2
*MODEL_SPACE
0
ENDBLK
5
21
100
AcDbEntity
100
AcDbBlockEnd
0
BLOCK
5
1C
100
AcDbEntity
100
AcDbBlockBegin
2
*PAPER_SPACE
0
ENDBLK
5
1D
100
AcDbEntity
100
AcDbBlockEnd
0
ENDSEC
0
SECTION
2
ENTITIES
0
ARC
5
100
100
AcDbEntity
8
OUTER_PROFILES
100
AcDbCircle
10
-5.9999999999999964
20
2.0000000000000107
30
0
40
2.0000000000000009
210
0
220
0
230
-1
100
AcDbArc
50
180
51
270
0
LINE
5
101
100
AcDbEntity
8
OUTER_PROFILES
100
AcDbLine
10
7.9999999999999973
20
2.0000000000000115
30
0
11
7.9999999999999982
21
4.0000000000000036
31
0
0
ARC
5
102
100
AcDbEntity
8
OUTER_PROFILES
100
AcDbCircle
10
-5.9999999999999964
20
4.0000000000000036
30
0
40
2.0000000000000009
210
0
220
0
230
-1
100
AcDbArc
50
89.999999999999972
51
180
0
LINE
5
103
100
AcDbEntity
8
OUTER_PROFILES
100
AcDbLine
10
5.9999999999999956
20
6.0000000000000044
30
0
11
0
21
5.9999999999999964
31
0
0
LWPOLYLINE
5
104
100
AcDbEntity
8
OUTER_PROFILES
100
AcDbPolyline
90
47
10
0
20
5.9999999999999964
30
0
10
-5.0636389661315251
20
6.0699637096410211
30
0
10
-9.870611396422607
20
6.2794241786058453
30
0
10
-14.422639691833458
20
6.6271553760696733
30
0
10
-18.722483331916617
20
7.111199965029841
30
0
10
-22.773848411801684
20
7.7289219043958726
30
0
10
-26.581297179180051
20
8.4770590510795287
30
0
10
-30.15015758126038
20
9.3517757696339121
30
0
10
-33.486434096430486
20
10.348716514570064
30
0
10
-36.596725883124307
20
11.463064952679387
30
0
10
-39.488151020683844
20
12.689607697730041
30
0
10
-42.168271431964811
20
14.022798561325548
30
0
10
-44.645017807255236
20
15.45682280475746
30
0
10
-46.926614528222331
20
16.985661390747044
30
0
10
-49.021504810166469
20
18.60315437259576
30
0
10
-52.685608814833522
20
22.07904123722291
30
0
10
-55.706639304619159
20
25.833878983777691
30
0
10
-58.153138224770345
20
29.816803175833257
30
0
10
-60.090820550320181
20
33.977527103925887
30
0
10
-61.580567298844613
20
38.268194038621843
30
0
10
-62.67648150112511
20
42.646448141605326
30
0
10
-63.423955219547707
20
47.078577498059381
30
0
10
-63.857736564012114
20
51.540570189379693
30
0
10
-63.999996554376288
20
56.015539514661874
30
0
10
-63.858428358727863
20
60.490183283720768
30
0
10
-63.425189363726744
20
64.951221366723473
30
0
10
-62.67798274374961
20
69.381825502332987
30
0
10
-61.581981745003709
20
73.758064787750897
30
0
10
-60.091780295389292
20
78.046318819117914
30
0
10
-58.153320716354848
20
82.204329038294162
30
0
10
-55.705808359552471
20
86.184341267938294
30
0
10
-52.683637809694602
20
89.936176107830448
30
0
10
-49.018390059069645
20
93.409078937151435
30
0
10
-46.922967804597384
20
95.025121075635056
30
0
10
-44.640888798290028
20
96.552553966976518
30
0
10
-42.163727644071038
20
97.985230430521497
30
0
10
-39.483277931129408
20
99.317143675048015
30
0
10
-36.591626791364995
20
100.54249061105679
30
0
10
-33.481229670369416
20
101.65573602657756
30
0
10
-30.144985098434354
20
102.65167676308648
30
0
10
-26.576309462882683
20
103.52550589042605
30
0
10
-22.769212467191196
20
104.27287636373818
30
0
10
-18.718378727216461
20
104.88996005171865
30
0
10
-14.419256738806007
20
105.37350120528272
30
0
10
-9.8681491396284144
20
105.72086895011412
30
0
10
-5.0623029810480968
20
105.93010977163914
30
0
10
4.1202610112073116e-15
20
106.00000000000003
30
0
0
LINE
5
105
100
AcDbEntity
8
OUTER_PROFILES
100
AcDbLine
10
4.1202610112073116e-15
20
106.00000000000003
30
0
11
5.9999999999999956
21
106.00000000000003
31
0
0
ARC
5
106
100
AcDbEntity
8
OUTER_PROFILES
100
AcDbCircle
10
-6.0000000000000053
20
108.00000000000003
30
0
40
2.0000000000000009
210
0
220
0
230
-1
100
AcDbArc
50
180
51
270.00000000000034
0
LINE
5
107
100
AcDbEntity
8
OUTER_PROFILES
100
AcDbLine
10
8.0000000000000053
20
108.00000000000003
30
0
11
7.9999999999999982
21
110.00000000000001
31
0
0
ARC
5
108
100
AcDbEntity
8
OUTER_PROFILES
100
AcDbCircle
10
-6.0000000000000053
20
110.00000000000001
30
0
40
1.9999999999999929
210
0
220
0
230
-1
100
AcDbArc
50
89.999999999999972
51
180
0
LINE
5
109
100
AcDbEntity
8
OUTER_PROFILES
100
AcDbLine
10
6.0000000000000044
20
112.00000000000001
30
0
11
0
21
112.00000000000001
31
0
0
LWPOLYLINE
5
110
100
AcDbEntity
8
OUTER_PROFILES
100
AcDbPolyline
90
24
10
0
20
112.00000000000001
30
0
10
-5.0263203553427704
20
111.93188992861378
30
0
10
-9.8299621376486161
20
111.72779904366485
30
0
10
-14.412093953261099
20
111.3884274644995
30
0
10
-18.7745854739042
20
110.9149085897196
30
0
10
-22.91994425761132
20
110.30878215369913
30
0
10
-26.851252569653997
20
109.57196728310072
30
0
10
-30.57210420794279
20
108.70673555646695
30
0
10
-34.086542175578636
20
107.71568464624144
30
0
10
-37.399001924355062
20
106.60171579091059
30
0
10
-40.514259831354458
20
105.36801486498379
30
0
10
-43.437382357952913
20
104.01803391814087
30
0
10
-46.173675211080649
20
102.55547271593032
30
0
10
-48.728632504482981
20
100.98426028046757
30
0
10
-51.107886023129083
20
99.308536494155447
30
0
10
-55.362210810751662
20
95.661069315289765
30
0
10
-58.982710247964071
20
91.649818926483277
30
0
10
-62.014829139349402
20
87.313991267807083
30
0
10
-64.502059417971282
20
82.694840060073602
30
0
10
-66.484662901183455
20
77.835329201960604
30
0
10
-67.998480055405736
20
72.779900006392722
30
0
10
-69.073757826204798
20
67.574259750906535
30
0
10
-69.733987458115237
20
62.265141585942345
30
0
10
-69.994764042465206
20
56.899999999994549
30
0
0
LINE
5
111
100
AcDbEntity
8
OUTER_PROFILES
100
AcDbLine
10
-69.994764042465206
20
56.899999999994549
30
0
11
-66.999993730096094
21
56.900000000000006
31
0
0
LINE
5
112
100
AcDbEntity
8
OUTER_PROFILES
100
AcDbLine
10
-66.999993730096094
20
56.900000000000006
30
0
11
-66.999993730096094
21
55.099999999999994
31
0
0
LINE
5
113
100
AcDbEntity
8
OUTER_PROFILES
100
AcDbLine
10
-66.999993730096094
20
55.099999999999994
30
0
11
-69.994246485582707
21
55.099999999999994
31
0
0
LWPOLYLINE
5
114
100
AcDbEntity
8
OUTER_PROFILES
100
AcDbPolyline
90
24
10
-69.994246485582707
20
55.099999999999994
30
0
10
-69.730563862485525
20
49.736505059644294
30
0
10
-69.067825680214654
20
44.428692041361664
30
0
10
-67.990535770733615
20
39.224002412680882
30
0
10
-66.475268029342757
20
34.169174838906201
30
0
10
-64.491790020967102
20
29.309938067767789
30
0
10
-62.004231360790421
20
24.690768216672275
30
0
10
-58.972272241983319
20
20.354674432869505
30
0
10
-55.352349797746825
20
16.342963074923034
30
0
10
-51.098942077167983
20
12.694897162711749
30
0
10
-48.720248969288313
20
11.018840801160582
30
0
10
-46.165905620947775
20
9.4472835412557856
30
0
10
-43.430269078725139
20
7.9843725757962662
30
0
10
-40.50783394321094
20
6.6340440535089602
30
0
10
-37.393283314155596
20
5.4000046125239267
30
0
10
-34.081539839012088
20
4.2857128521776104
30
0
10
-30.567816761478454
20
3.2943608048159834
30
0
10
-26.847668972325977
20
2.4288554060099456
30
0
10
-22.91704474016754
20
1.6917994923659954
30
0
10
-18.772342629831702
20
1.0854691951264193
30
0
10
-14.410473920693306
20
0.61178751254546215
30
0
10
-9.8289258572260785
20
0.27229730405988251
30
0
10
-5.0258249038868685
20
0.068134281449871437
30
0
10
1.6752681158266596e-15
20
1.0303104253365658e-15
30
0
0
LINE
5
115
100
AcDbEntity
8
OUTER_PROFILES
100
AcDbLine
10
1.6752681158266596e-15
20
1.0303104253365658e-15
30
0
11
5.9999999999999964
21
1.0269562977782698e-14
31
0
0
CIRCLE
5
116
100
AcDbEntity
8
INTERIOR_PROFILES
100
AcDbCircle
10
-4.0000000000000036
20
109.00000000000003
30
0
40
1.5499999999999936
210
0
220
0
230
-1
0
CIRCLE
5
117
100
AcDbEntity
8
INTERIOR_PROFILES
100
AcDbCircle
10
-4.0000000000000036
20
3.0000000000000071
30
0
40
1.5500000000000003
210
0
220
0
230
-1
0
ENDSEC
0
SECTION
2
OBJECTS
0
DICTIONARY
5
C
100
AcDbDictionary
3
ACAD_GROUP
350
D
3
ACAD_MLINESTYLE
350
17
0
DICTIONARY
5
D
100
AcDbDictionary
0
DICTIONARY
5
1A
330
C
100
AcDbDictionary
0
DICTIONARY
5
17
100
AcDbDictionary
0
ENDSEC
0
EOF
