0
SECTION
2
HEADER
9
$INSUNITS
70
4
9
$ACADVER
1
AC1014
9
$HANDSEED
5
FFFF
0
ENDSEC
0
SECTION
2
TABLES
0
TABLE
2
VPORT
5
8
100
AcDbSymbolTable
0
ENDTAB
0
TABLE
2
LTYPE
5
5
100
AcDbSymbolTable
0
LTYPE
5
14
100
AcDbSymbolTableRecord
100
AcDbLinetypeTableRecord
2
BYBLOCK
70
0
0
LTYPE
5
15
100
AcDbSymbolTableRecord
100
AcDbLinetypeTableRecord
2
BYLAYER
70
0
0
LTYPE
5
16
100
AcDbSymbolTableRecord
100
AcDbLinetypeTableRecord
2
DASHED
70
0
3
Dashed __ __ __ __ __ __ __ __ __ __ __ __ __ _
72
65
73
2
40
0.75
49
0.5
74
0
49
-0.25
74
0
0
ENDTAB
0
TABLE
2
LAYER
5
2
100
AcDbSymbolTable
70
3
0
LAYER
5
50
100
AcDbSymbolTableRecord
100
AcDbLayerTableRecord
2
1
70
0
62
7
6
DASHED
0
LAYER
5
51
100
AcDbSymbolTableRecord
100
AcDbLayerTableRecord
2
0
70
0
62
7
6
CONTINUOUS
0
ENDTAB
0
TABLE
2
STYLE
5
3
100
AcDbSymbolTable
70
1
0
STYLE
5
11
100
AcDbSymbolTableRecord
100
AcDbTextStyleTableRecord
2
STANDARD
70
0
0
ENDTAB
0
TABLE
2
VIEW
5
6
100
AcDbSymbolTable
70
0
0
ENDTAB
0
TABLE
2
UCS
5
7
100
AcDbSymbolTable
70
0
0
ENDTAB
0
TABLE
2
APPID
5
9
100
AcDbSymbolTable
70
2
0
APPID
5
12
100
AcDbSymbolTableRecord
100
AcDbRegAppTableRecord
2
ACAD
70
0
0
ENDTAB
0
TABLE
2
DIMSTYLE
5
A
100
AcDbSymbolTable
70
1
0
ENDTAB
0
TABLE
2
BLOCK_RECORD
5
1
100
AcDbSymbolTable
70
1
0
BLOCK_RECORD
5
1F
100
AcDbSymbolTableRecord
100
AcDbBlockTableRecord
2
*MODEL_SPACE
0
BLOCK_RECORD
5
1B
100
AcDbSymbolTableRecord
100
AcDbBlockTableRecord
2
*PAPER_SPACE
0
ENDTAB
0
ENDSEC
0
SECTION
2
BLOCKS
0
BLOCK
5
20
100
AcDbEntity
100
AcDbBlockBegin
2
*MODEL_SPACE
0
ENDBLK
5
21
100
AcDbEntity
100
AcDbBlockEnd
0
BLOCK
5
1C
100
AcDbEntity
100
AcDbBlockBegin
2
*PAPER_SPACE
0
ENDBLK
5
1D
100
AcDbEntity
100
AcDbBlockEnd
0
ENDSEC
0
SECTION
2
ENTITIES
0
LINE
5
100
100
AcDbEntity
8
OUTER_PROFILES
100
AcDbLine
10
5.9999999999999964
20
5.9999999999999964
30
0
11
0
21
5.9999999999999964
31
0
0
LWPOLYLINE
5
101
100
AcDbEntity
8
OUTER_PROFILES
100
AcDbPolyline
90
24
10
0
20
5.9999999999999964
30
0
10
-5.0263203553427793
20
5.9318899286137592
30
0
10
-9.829962137648625
20
5.7277990436648061
30
0
10
-14.412093953261106
20
5.3884274644994612
30
0
10
-18.774585473904207
20
4.9149085897195741
30
0
10
-22.919944257611323
20
4.3087821536990987
30
0
10
-26.851252569654001
20
3.5719672831006797
30
0
10
-30.57210420794279
20
2.7067355564669282
30
0
10
-34.086542175578636
20
1.7156846462414377
30
0
10
-37.399001924355055
20
0.60171579091057636
30
0
10
-40.514259831354451
20
-0.63198513501621756
30
0
10
-43.437382357952899
20
-1.9819660818591407
30
0
10
-46.173675211080649
20
-3.4445272840697045
30
0
10
-48.728632504482981
20
-5.0157397195324505
30
0
10
-51.107886023129083
20
-6.691463505844566
30
0
10
-55.362210810751662
20
-10.338930684710268
30
0
10
-58.982710247964071
20
-14.350181073516717
30
0
10
-62.014829139349402
20
-18.686008732192928
30
0
10
-64.502059417971282
20
-23.305159939926412
30
0
10
-66.484662901183455
20
-28.164670798039406
30
0
10
-67.998480055405736
20
-33.22009999360732
30
0
10
-69.073757826204798
20
-38.425740249093494
30
0
10
-69.733987458115237
20
-43.734858414057662
30
0
10
-69.994764042465206
20
-49.100000000005451
30
0
0
LINE
5
102
100
AcDbEntity
8
OUTER_PROFILES
100
AcDbLine
10
-69.994246485582764
20
-49.100000000000009
30
0
11
-69.994246485582764
21
-50.899999999996211
31
0
0
LWPOLYLINE
5
103
100
AcDbEntity
8
OUTER_PROFILES
100
AcDbPolyline
90
24
10
-69.994246485582764
20
-50.899999999996211
30
0
10
-69.730563862485525
20
-56.263494940355699
30
0
10
-69.067825680214654
20
-61.571307958638329
30
0
10
-67.990535770733615
20
-66.775997587319125
30
0
10
-66.475268029342757
20
-71.830825161093813
30
0
10
-64.491790020967102
20
-76.69006193223224
30
0
10
-62.004231360790421
20
-81.30923178332776
30
0
10
-58.972272241983319
20
-85.645325567130527
30
0
10
-55.352349797746825
20
-89.657036925076994
30
0
10
-51.098942077167983
20
-93.30510283728826
30
0
10
-48.720248969288313
20
-94.981159198839421
30
0
10
-46.165905620947768
20
-96.552716458744214
30
0
10
-43.430269078725139
20
-98.015627424203743
30
0
10
-40.50783394321094
20
-99.365955946491042
30
0
10
-37.393283314155596
20
-100.59999538747607
30
0
10
-34.081539839012081
20
-101.71428714782239
30
0
10
-30.567816761478444
20
-102.70563919518402
30
0
10
-26.847668972325973
20
-103.57114459399008
30
0
10
-22.917044740167533
20
-104.30820050763401
30
0
10
-18.772342629831698
20
-104.91453080487361
30
0
10
-14.410473920693295
20
-105.38821248745455
30
0
10
-9.8289258572260714
20
-105.72770269594014
30
0
10
-5.0258249038868597
20
-105.93186571855013
30
0
10
1.6752681158266596e-15
20
-106.00000000000003
30
0
0
LINE
5
104
100
AcDbEntity
8
OUTER_PROFILES
100
AcDbLine
10
1.6752681158266596e-15
20
-106.00000000000003
30
0
11
5.9999999999999964
21
-106.00000000000001
31
0
0
ARC
5
105
100
AcDbEntity
8
OUTER_PROFILES
100
AcDbCircle
10
5.9999999999999964
20
-104
30
0
40
2.0000000000000107
210
0
220
0
230
1
100
AcDbArc
50
270
51
360
0
LINE
5
106
100
AcDbEntity
8
OUTER_PROFILES
100
AcDbLine
10
8.0000000000000071
20
-104.00000000000003
30
0
11
7.9999999999999982
21
-102.00000000000003
31
0
0
ARC
5
107
100
AcDbEntity
8
OUTER_PROFILES
100
AcDbCircle
10
5.9999999999999964
20
-102.00000000000003
30
0
40
2.0000000000000018
210
0
220
-0
230
1
100
AcDbArc
50
0
51
89.999999999999744
0
LINE
5
108
100
AcDbEntity
8
OUTER_PROFILES
100
AcDbLine
10
6.0000000000000053
20
-100.00000000000001
30
0
11
0
21
-100.00000000000001
31
0
0
LWPOLYLINE
5
109
100
AcDbEntity
8
OUTER_PROFILES
100
AcDbPolyline
90
24
10
0
20
-100.00000000000001
30
0
10
-5.0005394890397721
20
-99.931812430634579
30
0
10
-9.7509148598488942
20
-99.727659235489597
30
0
10
-14.252763604368582
20
-99.388706208010689
30
0
10
-18.508710475576695
20
-98.916815046805752
30
0
10
-22.522282659862888
20
-98.314494030400368
30
0
10
-26.297824949403733
20
-97.584848691993088
30
0
10
-29.840414918984948
20
-96.731532490843804
30
0
10
-33.155779042556183
20
-95.75869677217139
30
0
10
-36.250215227907383
20
-94.670935867759908
30
0
10
-39.130521571165495
20
-93.473227487411933
30
0
10
-41.803925954418943
20
-92.170872472052139
30
0
10
-44.278015646498226
20
-90.769434544441609
30
0
10
-46.560666903756442
20
-89.274680059892091
30
0
10
-48.659974668292463
20
-87.692518142002442
30
0
10
-52.341630235180368
20
-84.29003874233976
30
0
10
-55.389640690349715
20
-80.610626515590141
30
0
10
-57.870135955818888
20
-76.703229258825189
30
0
10
-59.846784326617389
20
-72.616365842999102
30
0
10
-61.378901529316714
20
-68.396563160703664
30
0
10
-62.519623503866192
20
-64.08555958181924
30
0
10
-63.314093714195671
20
-59.717290437643541
30
0
10
-63.797650602314036
20
-55.316353275034196
30
0
10
-63.994014893337763
20
-50.899999999999991
30
0
0
LINE
5
110
100
AcDbEntity
8
OUTER_PROFILES
100
AcDbLine
10
-63.994014893337763
20
-50.899999999999991
30
0
11
-66.999993730096094
21
-50.899999999996211
31
0
0
LINE
5
111
100
AcDbEntity
8
OUTER_PROFILES
100
AcDbLine
10
-66.999993730096094
20
-50.899999999996211
30
0
11
-66.999993730096094
21
-49.100000000000009
31
0
0
LINE
5
112
100
AcDbEntity
8
OUTER_PROFILES
100
AcDbLine
10
-66.999993730096094
20
-49.100000000000009
30
0
11
-63.99455317666073
21
-49.100000000000023
31
0
0
LWPOLYLINE
5
113
100
AcDbEntity
8
OUTER_PROFILES
100
AcDbPolyline
90
24
10
-63.99455317666073
20
-49.100000000000023
30
0
10
-63.800673398221257
20
-44.682093327753911
30
0
10
-63.319290510005423
20
-40.280125353229828
30
0
10
-62.5266178423703
20
-35.911273440230708
30
0
10
-61.387268011057621
20
-31.60003501958726
30
0
10
-59.856083468153827
20
-27.380250739008154
30
0
10
-57.879944770341531
20
-23.293587169779695
30
0
10
-55.399569596452196
20
-19.386517645208798
30
0
10
-52.351327592084154
20
-15.707516979024195
30
0
10
-48.669127051707655
20
-12.305491482689654
30
0
10
-46.569441637178898
20
-10.723560282759896
30
0
10
-44.28634961218588
20
-9.2290331767202556
30
0
10
-41.811761566517383
20
-7.8278154737251846
30
0
10
-39.137806894844296
20
-6.5256702768074906
30
0
10
-36.256903965841147
20
-5.328158569522107
30
0
10
-33.161830389488294
20
-4.2405789055573448
30
0
10
-29.845793284374082
20
-3.2679070983460665
30
0
10
-26.302499548090601
20
-2.414735913010162
30
0
10
-22.52622697110175
20
-1.6852153944620683
30
0
10
-18.511901613290508
20
-1.0829979188959995
30
0
10
-14.255181676632509
20
-0.61118814473726968
30
0
10
-9.7525423350811487
20
-0.27229368553241373
30
0
10
-5.0013605690674545
20
-0.068175786319749632
30
0
10
4.1202610112073116e-15
20
1.4071368492644188e-15
30
0
0
LINE
5
114
100
AcDbEntity
8
OUTER_PROFILES
100
AcDbLine
10
4.1202610112073116e-15
20
1.4071368492644188e-15
30
0
11
5.9999999999999964
21
0
31
0
0
ARC
5
115
100
AcDbEntity
8
OUTER_PROFILES
100
AcDbCircle
10
5.9999999999999964
20
2.0000000000000107
30
0
40
2.0000000000000107
210
0
220
0
230
1
100
AcDbArc
50
-90
51
0
0
LINE
5
116
100
AcDbEntity
8
OUTER_PROFILES
100
AcDbLine
10
8.0000000000000071
20
2.0000000000000107
30
0
11
7.9999999999999982
21
4.0000000000000036
31
0
0
ARC
5
117
100
AcDbEntity
8
OUTER_PROFILES
100
AcDbCircle
10
5.9999999999999964
20
3.9999999999999858
30
0
40
2.0000000000000018
210
0
220
-0
230
1
100
AcDbArc
50
0
51
90
0
CIRCLE
5
118
100
AcDbEntity
8
INTERIOR_PROFILES
100
AcDbCircle
10
-4.0000000000000036
20
-103
30
0
40
1.5500000000000114
210
0
220
0
230
-1
0
CIRCLE
5
119
100
AcDbEntity
8
INTERIOR_PROFILES
100
AcDbCircle
10
-4.0000000000000036
20
2.9999999999999982
30
0
40
1.5500000000000025
210
0
220
0
230
-1
0
ENDSEC
0
SECTION
2
OBJECTS
0
DICTIONARY
5
C
100
AcDbDictionary
3
ACAD_GROUP
350
D
3
ACAD_MLINESTYLE
350
17
0
DICTIONARY
5
D
100
AcDbDictionary
0
DICTIONARY
5
1A
330
C
100
AcDbDictionary
0
DICTIONARY
5
17
100
AcDbDictionary
0
ENDSEC
0
EOF
