0
SECTION
2
HEADER
9
$INSUNITS
70
4
9
$ACADVER
1
AC1014
9
$HANDSEED
5
FFFF
0
ENDSEC
0
SECTION
2
TABLES
0
TABLE
2
VPORT
5
8
100
AcDbSymbolTable
0
ENDTAB
0
TABLE
2
LTYPE
5
5
100
AcDbSymbolTable
0
LTYPE
5
14
100
AcDbSymbolTableRecord
100
AcDbLinetypeTableRecord
2
BYBLOCK
70
0
0
LTYPE
5
15
100
AcDbSymbolTableRecord
100
AcDbLinetypeTableRecord
2
BYLAYER
70
0
0
ENDTAB
0
TABLE
2
LAYER
5
2
100
AcDbSymbolTable
70
2
0
LAYER
5
50
100
AcDbSymbolTableRecord
100
AcDbLayerTableRecord
2
0
70
0
6
CONTINUOUS
0
ENDTAB
0
TABLE
2
STYLE
5
3
100
AcDbSymbolTable
70
1
0
STYLE
5
11
100
AcDbSymbolTableRecord
100
AcDbTextStyleTableRecord
2
STANDARD
70
0
0
ENDTAB
0
TABLE
2
VIEW
5
6
100
AcDbSymbolTable
70
0
0
ENDTAB
0
TABLE
2
UCS
5
7
100
AcDbSymbolTable
70
0
0
ENDTAB
0
TABLE
2
APPID
5
9
100
AcDbSymbolTable
70
2
0
APPID
5
12
100
AcDbSymbolTableRecord
100
AcDbRegAppTableRecord
2
ACAD
70
0
0
ENDTAB
0
TABLE
2
DIMSTYLE
5
A
100
AcDbSymbolTable
70
1
0
ENDTAB
0
TABLE
2
BLOCK_RECORD
5
1
100
AcDbSymbolTable
70
1
0
BLOCK_RECORD
5
1F
100
AcDbSymbolTableRecord
100
AcDbBlockTableRecord
2
*MODEL_SPACE
0
BLOCK_RECORD
5
1B
100
AcDbSymbolTableRecord
100
AcDbBlockTableRecord
2
*PAPER_SPACE
0
ENDTAB
0
ENDSEC
0
SECTION
2
BLOCKS
0
BLOCK
5
20
100
AcDbEntity
100
AcDbBlockBegin
2
*MODEL_SPACE
0
ENDBLK
5
21
100
AcDbEntity
100
AcDbBlockEnd
0
BLOCK
5
1C
100
AcDbEntity
100
AcDbBlockBegin
2
*PAPER_SPACE
0
ENDBLK
5
1D
100
AcDbEntity
100
AcDbBlockEnd
0
ENDSEC
0
SECTION
2
ENTITIES
0
LWPOLYLINE
5
100
100
AcDbEntity
8
OUTER_PROFILES
100
AcDbPolyline
90
24
70
1
43
0.0
10
111.00000000000001
20
4.8431457505076025
10
111.00000000000001
20
1.4999999999999947
42
-0.41421356237309853
10
109.5
20
-5.8286708792820718e-15
10
0
20
3.0531133177191805e-15
42
-0.41421356237309503
10
-1.5000000000000004
20
1.5000000000000036
10
-1.5000000000000047
20
4.8431457505076025
42
0.31783724519578277
10
-2.8333333333333415
20
6.7287638336717315
42
-0.70710678118654591
10
-2.8333333333333521
20
14.271236166328244
42
0.31783724519578249
10
-1.5000000000000036
20
16.15685424949239
10
-1.5000000000000036
20
71.843145750507603
42
0.31783724519578238
10
-2.8333333333333508
20
73.728763833671735
42
-0.70710678118654613
10
-2.833333333333341
20
81.271236166328265
42
0.3178372451957826
10
-1.5000000000000033
20
83.156854249492383
10
-1.5000000000000002
20
86.499999999999972
42
-0.41421356237309709
10
-7.1972758675370532e-15
20
87.999999999999986
10
109.50000000000001
20
87.999999999999986
42
-0.41421356237309503
10
111.00000000000001
20
86.499999999999986
10
111
20
83.156854249492383
42
0.3178372451957826
10
112.33333333333334
20
81.271236166328265
42
-0.70710678118654524
10
112.33333333333337
20
73.728763833671749
42
0.31783724519578382
10
111.00000000000001
20
71.843145750507603
10
111.00000000000001
20
16.156854249492394
42
0.31783724519578155
10
112.33333333333336
20
14.271236166328245
42
-0.70710678118654702
10
112.33333333333334
20
6.7287638336717279
42
0.31783724519578249
0
CIRCLE
5
101
100
AcDbEntity
8
INTERIOR_PROFILES
100
AcDbCircle
10
-84.75
20
27
30
0
40
1.5499999999999936
210
0
220
0
230
-1
0
CIRCLE
5
102
100
AcDbEntity
8
INTERIOR_PROFILES
100
AcDbCircle
10
111.00000000000001
20
10.499999999999989
30
0
40
1.6000000000000014
210
0
220
0
230
1
0
CIRCLE
5
103
100
AcDbEntity
8
INTERIOR_PROFILES
100
AcDbCircle
10
1.5000000000000036
20
10.499999999999989
30
0
40
1.6000000000000014
210
0
220
0
230
-1
0
CIRCLE
5
104
100
AcDbEntity
8
INTERIOR_PROFILES
100
AcDbCircle
10
-84.75
20
54.500000000000014
30
0
40
1.5499999999999936
210
0
220
0
230
-1
0
CIRCLE
5
105
100
AcDbEntity
8
INTERIOR_PROFILES
100
AcDbCircle
10
-24.75
20
27
30
0
40
1.549999999999998
210
0
220
0
230
-1
0
CIRCLE
5
106
100
AcDbEntity
8
INTERIOR_PROFILES
100
AcDbCircle
10
-111.00000000000001
20
77.5
30
0
40
1.6000000000000014
210
0
220
0
230
-1
0
CIRCLE
5
107
100
AcDbEntity
8
INTERIOR_PROFILES
100
AcDbCircle
10
-102.10000000000001
20
66.200000000000017
30
0
40
1.6000000000000014
210
0
220
0
230
-1
0
CIRCLE
5
108
100
AcDbEntity
8
INTERIOR_PROFILES
100
AcDbCircle
10
-84.75
20
20.500000000000004
30
0
40
1.5499999999999936
210
0
220
0
230
-1
0
CIRCLE
5
109
100
AcDbEntity
8
INTERIOR_PROFILES
100
AcDbCircle
10
-24.75
20
54.500000000000014
30
0
40
1.549999999999998
210
0
220
0
230
-1
0
CIRCLE
5
110
100
AcDbEntity
8
INTERIOR_PROFILES
100
AcDbCircle
10
-1.5000000000000036
20
77.5
30
0
40
1.6000000000000014
210
0
220
-0
230
1
0
CIRCLE
5
111
100
AcDbEntity
8
INTERIOR_PROFILES
100
AcDbCircle
10
-102.10000000000001
20
8.5999999999999979
30
0
40
1.6000000000000014
210
0
220
0
230
-1
0
CIRCLE
5
112
100
AcDbEntity
8
INTERIOR_PROFILES
100
AcDbCircle
10
-7.2500000000000053
20
8.5999999999999979
30
0
40
1.6000000000000003
210
0
220
0
230
-1
0
CIRCLE
5
113
100
AcDbEntity
8
INTERIOR_PROFILES
100
AcDbCircle
10
-84.75
20
61.000000000000007
30
0
40
1.5499999999999936
210
0
220
0
230
-1
0
CIRCLE
5
114
100
AcDbEntity
8
INTERIOR_PROFILES
100
AcDbCircle
10
-24.75
20
20.5
30
0
40
1.549999999999998
210
0
220
0
230
-1
0
CIRCLE
5
115
100
AcDbEntity
8
INTERIOR_PROFILES
100
AcDbCircle
10
-7.2500000000000053
20
66.200000000000017
30
0
40
1.6000000000000003
210
0
220
0
230
-1
0
CIRCLE
5
116
100
AcDbEntity
8
INTERIOR_PROFILES
100
AcDbCircle
10
-24.75
20
61.000000000000007
30
0
40
1.549999999999998
210
0
220
0
230
-1
0
ENDSEC
0
SECTION
2
OBJECTS
0
DICTIONARY
5
C
100
AcDbDictionary
3
ACAD_GROUP
350
D
3
ACAD_MLINESTYLE
350
17
0
DICTIONARY
5
D
100
AcDbDictionary
0
DICTIONARY
5
1A
330
C
100
AcDbDictionary
0
DICTIONARY
5
17
100
AcDbDictionary
0
ENDSEC
0
EOF
